<?xml version="1.0" encoding="utf-8"?>
<!-- Generator: Adobe Illustrator 24.1.2, SVG Export Plug-In . SVG Version: 6.00 Build 0)  -->
<svg version="1.1" id="Слой_1" xmlns="http://www.w3.org/2000/svg" xmlns:xlink="http://www.w3.org/1999/xlink" x="0px" y="0px"
	 viewBox="0 0 1711 315.4" style="enable-background:new 0 0 1711 315.4;" xml:space="preserve">
<style type="text/css">
	.st0{fill-rule:evenodd;clip-rule:evenodd;fill:#FFFFFF;}
	.st1{opacity:0.96;}
	.st2{fill:#FFFFFF;}
</style>
<polygon class="st0" points="0,299.4 0,307.4 0,315.4 855.5,315.4 1711,315.4 1711,307.4 1711,299.4 855.5,299.4 "/>
<polygon class="st0" points="1711,122.4 1711,114.9 1711,107.4 1328.3,107.4 945.6,107.4 945.6,114.9 945.6,122.4 1328.3,122.4 "/>
<g>
	<path class="st0" d="M838.6,76.8c0,5.4-2.3,9.6-8,15.2c-3.3,3.2-7,7.9-8.2,10.3c-1.9,4-2,4.9-0.9,9c2.5,9.6,12.4,15.7,21.7,13.3
		c2.4-0.7,6.4-1.7,8.8-2.4c3.9-1,5.3-0.8,10.9,1c3.5,1.2,7.5,2.2,8.9,2.2c11.1,0,21-11.9,17.8-21.4c-0.6-2-4.5-7.2-8.5-11.6
		c-6.4-6.9-7.5-8.7-8-12.8c-1-6.7-4.8-12.8-9.5-15.2c-4.8-2.4-11.3-2.5-15.9-0.3C844,65.9,838.6,73.5,838.6,76.8z"/>
	<path class="st0" d="M885.7,83.8c5.9,5,15,2.5,23.4-6.5c10.8-11.5,12.5-26.9,3.6-32.2c-6.4-3.8-15.7-1.2-23,6.4
		C879.8,61.7,877.9,77.2,885.7,83.8z"/>
	<path class="st0" d="M893.4,22.7c0.5-9.6-1.1-15.4-5.6-19.5c-7.3-6.9-16.9-2.4-22.7,10.5c-3.3,7.1-4.3,16.6-2.6,23.3
		C868.4,60.3,892,49.4,893.4,22.7z"/>
	<path class="st0" d="M847,41.8c1.7-3.1,2.1-5.7,2.1-12.9c0-7.8-0.4-9.8-2.9-15.3c-2.8-6.1-9.3-13.2-12-13.2c-0.8,0-2-0.2-2.8-0.4
		c-4.1-1.2-9.9,3.5-12.4,10c-2.7,7.1-1.6,19.5,2.5,27.8C828.5,52,840.7,53.9,847,41.8z"/>
	<path class="st0" d="M819.4,85.7c3.9,0,5-0.5,7.9-3.6c2.9-3.3,3.3-4.3,3.3-9.4c0-10.3-7.9-22.6-17.8-27.7
		c-4.5-2.3-12.3-2.1-15.5,0.4c-5.4,4.3-5.9,12.5-1.4,22.3C800.8,78.4,810.3,85.7,819.4,85.7z"/>
</g>
<polygon class="st0" points="765.6,122.4 765.6,114.9 765.6,107.4 382.8,107.4 0,107.4 0,114.9 0,122.4 382.8,122.4 "/>
<g class="st1">
	<path class="st2" d="M6.8,211.4l18.5-22.7l10.9,5.9L22.3,212l13.9,17.3l-10.9,5.9L6.8,212.7V211.4z M32,211.4l18.4-22.7l11,5.9
		L47.5,212l13.9,17.3l-11,5.9L32,212.7V211.4z"/>
	<path class="st2" d="M134.3,240h-15.4v-31.4H90.1V240H74.7v-72.8h15.4v28.5h28.8v-28.5h15.4V240z"/>
	<path class="st2" d="M186.9,240l-2.9-7.6h-0.4c-2.6,3.2-5.2,5.5-7.9,6.7c-2.7,1.2-6.2,1.9-10.6,1.9c-5.3,0-9.6-1.5-12.6-4.6
		c-3.1-3.1-4.6-7.4-4.6-13c0-5.9,2.1-10.3,6.2-13.1c4.1-2.8,10.4-4.4,18.7-4.7l9.7-0.3v-2.4c0-5.6-2.9-8.5-8.7-8.5
		c-4.4,0-9.7,1.3-15.7,4l-5-10.3c6.4-3.4,13.5-5,21.3-5c7.5,0,13.2,1.6,17.2,4.9c4,3.3,6,8.2,6,14.8V240H186.9z M182.4,214.2
		l-5.9,0.2c-4.4,0.1-7.7,0.9-9.9,2.4c-2.2,1.5-3.2,3.7-3.2,6.7c0,4.3,2.5,6.4,7.4,6.4c3.5,0,6.3-1,8.4-3c2.1-2,3.2-4.7,3.2-8.1
		V214.2z"/>
	<path class="st2" d="M296,240h-82.9v-55.7h15.2v44.3H247v-44.3h15.2v44.3h18.7v-44.3H296V240z"/>
	<path class="st2" d="M388.3,240h-15.2v-44.3h-14c-1.1,12.5-2.4,21.7-3.9,27.9c-1.5,6.1-3.6,10.6-6.1,13.3c-2.5,2.7-5.9,4.1-10,4.1
		c-3.5,0-6.4-0.5-8.7-1.6v-12.2c1.6,0.7,3.3,1,4.9,1c1.9,0,3.5-1.4,4.8-4.1c1.3-2.7,2.4-7.3,3.4-13.6c1-6.4,1.9-15.1,2.6-26.2h42.1
		V240z"/>
	<path class="st2" d="M481.2,212c0,9.1-2.3,16.2-6.9,21.3c-4.6,5.1-11,7.6-19.2,7.6c-7.3,0-13.2-2.1-17.6-6.2
		c-4.4-4.1-7.1-10-8-17.8h-10v23h-15.2v-55.7h15.2v21.4h10.2c1-7.1,3.7-12.6,8.2-16.6c4.5-3.9,10.4-5.9,17.5-5.9
		c7.9,0,14.1,2.6,18.8,7.7C478.8,196.2,481.2,203.2,481.2,212z M444.8,212c0,5.5,0.8,9.7,2.4,12.5c1.6,2.8,4.3,4.2,8.1,4.2
		c3.7,0,6.3-1.4,8-4.2c1.6-2.8,2.4-7,2.4-12.5c0-5.5-0.8-9.7-2.5-12.4c-1.6-2.7-4.3-4.1-8-4.1c-3.7,0-6.3,1.4-8,4.1
		C445.6,202.4,444.8,206.5,444.8,212z"/>
	<path class="st2" d="M490.3,206.6c0-12.8,2.4-22.5,7.3-29.1c4.9-6.6,12.5-10.8,22.8-12.6c5-0.9,12.5-2,22.5-3.3l1.7,13.2
		c-4.3,0.5-12,1.6-23,3.2c-4.2,0.7-7.3,1.7-9.4,3c-2.1,1.3-3.6,3.2-4.6,5.7c-1,2.5-1.6,5.7-1.9,9.8h0.7c1.8-2.7,4.1-4.8,7-6.3
		c2.9-1.5,6-2.2,9.3-2.2c6.9,0,12.2,2.1,16,6.3c3.8,4.2,5.7,10.2,5.7,18.1c0,9-2.4,16-7.2,21c-4.8,5-11.5,7.5-20,7.5
		c-8.5,0-15.1-3-19.9-9.1C492.7,225.8,490.3,217.3,490.3,206.6z M518.3,228.7c7.2,0,10.8-5,10.8-14.9c0-9.7-3.3-14.5-9.8-14.5
		c-1.8,0-3.6,0.4-5.4,1.2c-1.8,0.8-3.4,1.9-4.9,3.3c-1.5,1.3-2.6,2.7-3.3,4.1c0,6.7,1.1,11.9,3.2,15.5
		C511.2,226.9,514.3,228.7,518.3,228.7z"/>
	<path class="st2" d="M571.9,184.3v22c0,2.3-0.4,8-1.1,17l25.7-39h18.3V240H600v-22.2c0-4,0.3-9.5,1-16.7L575.4,240h-18.2v-55.7
		H571.9z"/>
	<path class="st2" d="M700.8,240h-14.2v-43.9l-0.8,3.1c-1.8,7-3.4,12.3-4.8,15.9l-9.9,24.9h-10.8l-10-25.1c-1.4-3.7-3-8.8-4.6-15.4
		l-0.9-3.4V240h-14.1v-55.7h20.9l9.6,23.8c1,2.6,1.9,5.5,2.8,8.8c0.8,3.3,1.4,6.2,1.7,8.5c1.1-5,2-8.6,2.6-10.7c0.6-2.2,1.3-4.2,2-6
		c0.7-1.8,4-9.9,9.9-24.4h20.7V240z"/>
	<path class="st2" d="M741.9,241c-9,0-16-2.5-21-7.4c-5-4.9-7.6-12-7.6-21c0-9.3,2.3-16.5,7-21.6c4.7-5.1,11.1-7.6,19.3-7.6
		c7.9,0,14,2.2,18.4,6.7s6.6,10.7,6.6,18.6v7.4h-35.9c0.2,4.3,1.4,7.7,3.8,10.1c2.4,2.4,5.7,3.6,10.1,3.6c3.4,0,6.5-0.3,9.5-1
		s6.1-1.8,9.4-3.3V237c-2.7,1.3-5.5,2.3-8.5,3C750,240.7,746.3,241,741.9,241z M739.8,194.1c-3.2,0-5.7,1-7.6,3.1
		c-1.8,2-2.9,4.9-3.1,8.7h21.3c-0.1-3.8-1-6.6-2.9-8.7C745.6,195.1,743,194.1,739.8,194.1z"/>
	<path class="st2" d="M829.7,228.9h8.1V260h-13.6v-20H777v-55.7h15.2v44.3h22.2v-44.3h15.2V228.9z"/>
	<path class="st2" d="M872.7,212.7l-18.5,22.6l-10.9-5.9l13.8-17.3l-13.8-17.3l10.9-5.9l18.5,22.7V212.7z M897.9,212.7l-18.5,22.6
		l-10.9-5.9l13.8-17.3l-13.8-17.3l10.9-5.9l18.5,22.7V212.7z"/>
	<path class="st2" d="M951.1,184.3v22c0,2.3-0.4,8-1.1,17l25.7-39H994V240h-14.7v-22.2c0-4,0.3-9.5,1-16.7L954.7,240h-18.2v-55.7
		H951.1z"/>
	<path class="st2" d="M1032.5,211.4l18.5-22.7l10.9,5.9L1048,212l13.9,17.3l-10.9,5.9l-18.5-22.6V211.4z M1057.7,211.4l18.4-22.7
		l11,5.9l-13.9,17.3l13.9,17.3l-11,5.9l-18.4-22.6V211.4z"/>
	<path class="st2" d="M1128.1,241v-11.2h-1.1c-6.2,0-11.6-1.1-16.2-3.3c-4.6-2.2-8.3-5.4-11-9.8c-2.7-4.3-4-9.2-4-14.5
		c0-5.1,1.2-9.8,3.6-13.9c2.4-4.1,5.8-7.4,10.3-9.7c4.5-2.3,9.8-3.5,15.8-3.5h2.6v-9h13.9v9h2.6c6,0,11.3,1.2,15.8,3.5
		c4.5,2.3,7.9,5.6,10.3,9.7c2.4,4.1,3.6,8.8,3.6,13.9c0,5.3-1.3,10.1-4,14.5c-2.7,4.4-6.3,7.6-11,9.8c-4.6,2.2-10.1,3.3-16.2,3.3
		h-1.1V241H1128.1z M1128.1,187.1h-2c-4.9,0-8.7,1.4-11.6,4.1c-2.8,2.7-4.2,6.4-4.2,10.9c0,4.8,1.5,8.6,4.5,11.5
		c3,2.9,7.2,4.3,12.7,4.3h0.7V187.1z M1142,217.9h0.7c5.3,0,9.5-1.4,12.6-4.2c3-2.8,4.6-6.6,4.6-11.5c0-4.5-1.4-8.1-4.2-10.9
		c-2.8-2.7-6.7-4.1-11.6-4.1h-2V217.9z"/>
	<path class="st2" d="M1201.5,184.3v22c0,2.3-0.4,8-1.1,17l25.7-39h18.3V240h-14.7v-22.2c0-4,0.3-9.5,1-16.7l-25.6,38.9h-18.2v-55.7
		H1201.5z"/>
	<path class="st2" d="M1256.9,206.6c0-12.8,2.4-22.5,7.3-29.1c4.9-6.6,12.5-10.8,22.8-12.6c5-0.9,12.5-2,22.5-3.3l1.7,13.2
		c-4.3,0.5-12,1.6-23,3.2c-4.2,0.7-7.3,1.7-9.4,3c-2.1,1.3-3.6,3.2-4.6,5.7c-1,2.5-1.6,5.7-1.9,9.8h0.7c1.8-2.7,4.1-4.8,7-6.3
		c2.9-1.5,6-2.2,9.3-2.2c6.9,0,12.2,2.1,16,6.3c3.8,4.2,5.7,10.2,5.7,18.1c0,9-2.4,16-7.2,21c-4.8,5-11.5,7.5-20,7.5
		c-8.5,0-15.1-3-19.9-9.1S1256.9,217.3,1256.9,206.6z M1284.9,228.7c7.2,0,10.8-5,10.8-14.9c0-9.7-3.3-14.5-9.8-14.5
		c-1.8,0-3.6,0.4-5.4,1.2c-1.8,0.8-3.4,1.9-4.9,3.3c-1.5,1.3-2.6,2.7-3.3,4.1c0,6.7,1.1,11.9,3.2,15.5
		C1277.8,226.9,1280.9,228.7,1284.9,228.7z"/>
	<path class="st2" d="M1338.5,184.3v22c0,2.3-0.4,8-1.1,17l25.7-39h18.3V240h-14.7v-22.2c0-4,0.3-9.5,1-16.7L1342,240h-18.2v-55.7
		H1338.5z"/>
	<path class="st2" d="M1427.8,241c-6.5,0-11.7-2.4-15.4-7.1h-0.8c0.5,4.6,0.8,7.3,0.8,8.1v22.6h-15.2v-80.2h12.4l2.1,7.2h0.7
		c3.6-5.5,8.8-8.3,15.8-8.3c6.6,0,11.7,2.5,15.4,7.6c3.7,5.1,5.6,12.1,5.6,21.2c0,5.9-0.9,11.1-2.6,15.5c-1.7,4.4-4.2,7.7-7.4,10
		C1435.9,239.8,1432.2,241,1427.8,241z M1423.3,195.4c-3.8,0-6.5,1.2-8.2,3.5c-1.7,2.3-2.6,6.1-2.7,11.4v1.6c0,6,0.9,10.3,2.7,12.8
		c1.8,2.6,4.6,3.9,8.4,3.9c6.8,0,10.2-5.6,10.2-16.8c0-5.5-0.8-9.6-2.5-12.3C1429.5,196.8,1426.9,195.4,1423.3,195.4z"/>
	<path class="st2" d="M1497.1,240l-2.9-7.6h-0.4c-2.6,3.2-5.2,5.5-7.9,6.7c-2.7,1.2-6.2,1.9-10.6,1.9c-5.3,0-9.6-1.5-12.6-4.6
		c-3.1-3.1-4.6-7.4-4.6-13c0-5.9,2.1-10.3,6.2-13.1c4.1-2.8,10.4-4.4,18.7-4.7l9.7-0.3v-2.4c0-5.6-2.9-8.5-8.7-8.5
		c-4.5,0-9.7,1.3-15.7,4l-5-10.3c6.4-3.4,13.5-5,21.3-5c7.5,0,13.2,1.6,17.2,4.9c4,3.3,6,8.2,6,14.8V240H1497.1z M1492.7,214.2
		l-5.9,0.2c-4.4,0.1-7.7,0.9-9.9,2.4c-2.2,1.5-3.2,3.7-3.2,6.7c0,4.3,2.5,6.4,7.4,6.4c3.5,0,6.3-1,8.4-3c2.1-2,3.2-4.7,3.2-8.1
		V214.2z"/>
	<path class="st2" d="M1538.1,184.3v22c0,2.3-0.4,8-1.1,17l25.7-39h18.3V240h-14.7v-22.2c0-4,0.3-9.5,1-16.7l-25.6,38.9h-18.2v-55.7
		H1538.1z M1576.4,160.4c-0.6,6.2-3,10.7-7,13.6c-4.1,2.8-9.9,4.3-17.5,4.3c-7.9,0-13.7-1.4-17.5-4.1c-3.8-2.7-5.9-7.3-6.3-13.7
		h13.6c0.2,3.4,1.1,5.8,2.6,7.2c1.5,1.4,4.1,2.1,7.9,2.1c3.4,0,5.9-0.8,7.5-2.3c1.6-1.5,2.6-3.8,3-7H1576.4z"/>
	<path class="st2" d="M1610.7,205.7c5.7,0,9.8-0.5,12.2-1.4c2.4-0.9,3.6-2.4,3.6-4.4c0-1.8-0.9-3.1-2.6-4c-1.8-0.9-4.7-1.3-8.7-1.3
		c-2.6,0-5.5,0.3-8.7,0.9c-3.2,0.6-6.2,1.5-8.8,2.6l-4.5-10.6c4-1.5,7.8-2.6,11.5-3.2c3.7-0.6,7.9-1,12.5-1c6.9,0,12.5,1.3,16.7,4
		c4.2,2.7,6.3,6.3,6.3,10.8c0,6.3-3.7,10.4-11.1,12.3v0.5c4.5,1.1,7.8,2.7,9.7,4.8c1.9,2.1,2.9,4.8,2.9,8.1c0,3.4-1.1,6.4-3.3,9
		c-2.2,2.6-5.4,4.6-9.5,6.1c-4.2,1.4-9,2.1-14.6,2.1c-9.3,0-16.4-1.1-21.4-3.4V225c2.9,1.3,6,2.4,9.4,3.1c3.4,0.8,6.7,1.1,9.9,1.1
		c4.9,0,8.6-0.6,11.1-1.7c2.5-1.1,3.7-2.7,3.7-4.8c0-2.3-1.3-3.9-3.9-5c-2.6-1.1-6.6-1.6-12-1.6h-5.9v-10.5H1610.7z"/>
	<path class="st2" d="M1679,212.7l-18.5,22.6l-10.9-5.9l13.8-17.3l-13.8-17.3l10.9-5.9l18.5,22.7V212.7z M1704.2,212.7l-18.5,22.6
		l-10.9-5.9l13.8-17.3l-13.8-17.3l10.9-5.9l18.5,22.7V212.7z"/>
</g>
</svg>
